<svg width="80" height="70" viewBox="0 0 80 70" fill="none" xmlns="http://www.w3.org/2000/svg">
<path d="M71.1111 10.9375C72.3333 10.9375 73.3333 11.9219 73.3333 13.125V17.5H6.66667V13.125C6.66667 11.9219 7.66667 10.9375 8.88889 10.9375H71.1111ZM73.3333 30.625V56.875C73.3333 58.0781 72.3333 59.0625 71.1111 59.0625H8.88889C7.66667 59.0625 6.66667 58.0781 6.66667 56.875V30.625H73.3333ZM8.88889 4.375C3.98611 4.375 0 8.29883 0 13.125V56.875C0 61.7012 3.98611 65.625 8.88889 65.625H71.1111C76.0139 65.625 80 61.7012 80 56.875V13.125C80 8.29883 76.0139 4.375 71.1111 4.375H8.88889ZM16.6667 45.9375C14.8194 45.9375 13.3333 47.4004 13.3333 49.2188C13.3333 51.0371 14.8194 52.5 16.6667 52.5H23.3333C25.1806 52.5 26.6667 51.0371 26.6667 49.2188C26.6667 47.4004 25.1806 45.9375 23.3333 45.9375H16.6667ZM34.4444 45.9375C32.5972 45.9375 31.1111 47.4004 31.1111 49.2188C31.1111 51.0371 32.5972 52.5 34.4444 52.5H50C51.8472 52.5 53.3333 51.0371 53.3333 49.2188C53.3333 47.4004 51.8472 45.9375 50 45.9375H34.4444Z" fill="black"/>
</svg>
