<svg width="76" height="67" viewBox="0 0 76 67" fill="none" xmlns="http://www.w3.org/2000/svg">
<g clip-path="url(#clip0_624_82)">
<path d="M35.9814 38.2765C36.783 37.5699 38.1635 37.5699 38.965 38.2765L50.3947 48.3527C52.5025 50.2109 55.308 51.2316 58.2767 51.2316H60.5181L46.1049 63.9381C41.6072 67.7984 34.3041 67.7984 29.8064 63.9381L15.3338 51.1924H16.7142C19.683 51.1924 22.4885 50.1717 24.5963 48.3135L35.9814 38.2765ZM38.965 28.6453C38.015 29.365 36.7978 29.3781 35.9814 28.6453L24.5963 18.6084C22.4885 16.6324 19.683 15.7295 16.7142 15.7295H15.3338L29.7916 2.97854C34.3041 -0.992521 41.6072 -0.992521 46.1049 2.97854L60.533 15.6902H58.2767C55.308 15.6902 52.5025 16.7109 50.3947 18.5691L38.965 28.6453ZM16.7142 18.6738C18.7627 18.6738 20.6478 19.4066 22.2213 20.689L33.6064 30.726C34.6752 31.5504 36.0705 32.1392 37.4806 32.1392C38.876 32.1392 40.2713 31.5504 41.34 30.726L52.7697 20.6498C54.2244 19.3805 56.2283 18.6476 58.2767 18.6476H63.8728L72.5267 26.2767C77.0244 30.2418 77.0244 36.6801 72.5267 40.6451L63.8728 48.2742H58.2767C56.2283 48.2742 54.2244 47.5414 52.7697 46.259L41.34 36.1828C39.2767 34.3639 35.6697 34.3639 33.6064 36.1959L22.2213 46.2197C20.6478 47.5021 18.7627 48.2349 16.7142 48.2349H11.991L3.37861 40.6451C-1.12588 36.6801 -1.12588 30.2418 3.37861 26.2767L11.991 18.6738H16.7142Z" fill="black"/>
</g>
<defs>
<clipPath id="clip0_624_82">
<rect width="76" height="67" fill="white"/>
</clipPath>
</defs>
</svg>
