<svg width="134" height="21" viewBox="0 0 134 21" fill="none" xmlns="http://www.w3.org/2000/svg">
<g id="Social">
<g id="001-facebook">
<path id="Path" d="M8.11163 4.48022H9.92331V1.58454C9.61075 1.54508 8.53581 1.4563 7.28393 1.4563C4.67183 1.4563 2.88248 2.96409 2.88248 5.73532V8.28574H0V11.5229H2.88248V19.6681H6.41654V11.5236H9.18243L9.6215 8.2865H6.41571V6.0563C6.41654 5.12067 6.69106 4.48022 8.11163 4.48022Z" fill="white"/>
</g>
<g id="003-twitter">
<path id="Path_2" d="M71.9617 4.316C71.1435 4.64535 70.2718 4.86364 69.3629 4.96964C70.2979 4.45733 71.0115 3.65227 71.347 2.68191C70.4753 3.15889 69.5128 3.4958 68.487 3.68382C67.6593 2.87498 66.4795 2.37402 65.1925 2.37402C62.6955 2.37402 60.6853 4.23398 60.6853 6.51414C60.6853 6.84222 60.7155 7.15768 60.7898 7.458C57.0402 7.29017 53.7223 5.64094 51.4934 3.12861C51.1043 3.74817 50.876 4.45733 50.876 5.22075C50.876 6.6542 51.6804 7.92488 52.8794 8.66054C52.1548 8.64792 51.4439 8.45486 50.8417 8.15075C50.8417 8.16337 50.8417 8.17977 50.8417 8.19618C50.8417 10.2076 52.405 11.8782 54.4552 12.2631C54.088 12.3552 53.6879 12.3994 53.2727 12.3994C52.9839 12.3994 52.6924 12.3842 52.4188 12.3287C53.0032 13.9679 54.6614 15.1729 56.6332 15.212C55.0987 16.3136 53.1503 16.9774 51.041 16.9774C50.6712 16.9774 50.3164 16.9622 49.9617 16.9206C51.9595 18.1029 54.3273 18.778 56.8807 18.778C65.1802 18.778 69.7177 12.4688 69.7177 6.99995C69.7177 6.81698 69.7108 6.64032 69.7012 6.46493C70.5963 5.88195 71.3484 5.15387 71.9617 4.316Z" fill="white"/>
</g>
<g id="004-instagram">
<path id="Shape" fill-rule="evenodd" clip-rule="evenodd" d="M118.837 0.538696H127.087C130.883 0.538696 133.962 3.36397 133.962 6.84792V14.419C133.962 17.903 130.883 20.7282 127.087 20.7282H118.837C115.04 20.7282 111.962 17.903 111.962 14.419V6.84792C111.962 3.36397 115.04 0.538696 118.837 0.538696ZM127.087 18.8354C129.74 18.8354 131.899 16.8543 131.899 14.419V6.84788C131.899 4.41252 129.74 2.43142 127.087 2.43142H118.837C116.183 2.43142 114.024 4.41252 114.024 6.84788V14.419C114.024 16.8543 116.183 18.8354 118.837 18.8354H127.087Z" fill="white"/>
<path id="Shape_2" fill-rule="evenodd" clip-rule="evenodd" d="M117.462 10.6334C117.462 7.84602 119.924 5.58606 122.962 5.58606C125.999 5.58606 128.462 7.84602 128.462 10.6334C128.462 13.4209 125.999 15.6808 122.962 15.6808C119.924 15.6808 117.462 13.4209 117.462 10.6334ZM119.524 10.6334C119.524 12.3722 121.067 13.788 122.962 13.788C124.856 13.788 126.399 12.3722 126.399 10.6334C126.399 8.89333 124.856 7.4788 122.962 7.4788C121.067 7.4788 119.524 8.89333 119.524 10.6334Z" fill="white"/>
<ellipse id="Oval" cx="128.874" cy="5.20748" rx="0.732875" ry="0.672564" fill="white"/>
</g>
</g>
</svg>
